<svg xmlns="http://www.w3.org/2000/svg"
    width="24"
    height="24"
    viewBox="0 -960 960 960">

    <circle fill="#43A047" cx="50%" cy="-50%" r="50%" />

    <g transform-origin="50% -50%" transform="scale(0.75 0.75)">
        <!-- Original BCR handset silhouette -->
        <path
            fill="#ffffff"
            d="M777.61-140q-113.07 0-227.19-52.58-114.11-52.58-209.88-148.34-95.38-95.77-147.96-209.7Q140-664.54 140-777.61q0-18 12-30.2Q164-820 182-820h130.46q15.15 0 26.73 9.89 11.58 9.88 14.73 24.42L376.85-668q2.38 16.38-1 28.15-3.39 11.77-12.16 19.77l-92.38 89.93q22.3 40.84 50.96 77.27 28.65 36.42 62.04 69.57 32.92 32.93 70 61.16 37.08 28.23 80.08 52.54l89.76-90.54q9.39-9.77 22.74-13.7 13.34-3.92 27.73-1.92l111.07 22.62q15.15 4 24.73 15.46t9.58 26V-182q0 18-12.19 30-12.2 12-30.2 12Z" />

        <!-- Headless/module badge: a tiny terminal window -->
        <g transform="translate(36 8)">
            <!-- Outer module shell -->
            <rect x="500" y="-770" width="250" height="190" rx="34" fill="#ffffff" />

            <!-- Header strip -->
            <rect x="528" y="-742" width="194" height="20" rx="10" fill="#43A047" />
            <circle cx="550" cy="-732" r="7" fill="#ffffff" />
            <circle cx="575" cy="-732" r="7" fill="#ffffff" />

            <!-- Screen -->
            <rect x="528" y="-710" width="194" height="102" rx="16" fill="#43A047" />

            <!-- Prompt >_ -->
            <path fill="#ffffff" d="M570-689l40 30-40 30-12-15 20-15-20-15 12-15Z" />
            <rect x="626" y="-645" width="46" height="14" rx="7" fill="#ffffff" />

            <!-- Minimal module pins -->
            <rect x="560" y="-580" width="18" height="34" rx="9" fill="#ffffff" />
            <rect x="616" y="-580" width="18" height="34" rx="9" fill="#ffffff" />
            <rect x="672" y="-580" width="18" height="34" rx="9" fill="#ffffff" />
        </g>
    </g>
</svg>
